<mxfile host="app.diagrams.net" modified="2024-03-05T09:14:03.815Z" agent="Mozilla/5.0 (Windows NT 10.0; Win64; x64) AppleWebKit/537.36 (KHTML, like Gecko) Chrome/122.0.0.0 Safari/537.36" etag="oA1XqfQhDT7thaR44TAh" version="23.1.1" type="device">
  <diagram name="Page-1" id="6rJn6HxT9nP1GESelFK5">
    <mxGraphModel dx="1434" dy="746" grid="1" gridSize="10" guides="1" tooltips="1" connect="1" arrows="1" fold="1" page="1" pageScale="1" pageWidth="850" pageHeight="1100" math="0" shadow="0">
      <root>
        <mxCell id="0" />
        <mxCell id="1" parent="0" />
        <mxCell id="YBl5aUuOVhlVuq0WL3dP-3" style="edgeStyle=orthogonalEdgeStyle;rounded=0;orthogonalLoop=1;jettySize=auto;html=1;entryX=0;entryY=0.5;entryDx=0;entryDy=0;" edge="1" parent="1" source="YBl5aUuOVhlVuq0WL3dP-1" target="YBl5aUuOVhlVuq0WL3dP-2">
          <mxGeometry relative="1" as="geometry" />
        </mxCell>
        <mxCell id="YBl5aUuOVhlVuq0WL3dP-18" value="&lt;font style=&quot;font-size: 15px;&quot;&gt;1. Authenticate&lt;/font&gt;" style="edgeLabel;html=1;align=center;verticalAlign=middle;resizable=0;points=[];" vertex="1" connectable="0" parent="YBl5aUuOVhlVuq0WL3dP-3">
          <mxGeometry x="-0.5067" y="-1" relative="1" as="geometry">
            <mxPoint as="offset" />
          </mxGeometry>
        </mxCell>
        <mxCell id="YBl5aUuOVhlVuq0WL3dP-12" style="edgeStyle=orthogonalEdgeStyle;rounded=0;orthogonalLoop=1;jettySize=auto;html=1;entryX=0;entryY=0.5;entryDx=0;entryDy=0;" edge="1" parent="1" source="YBl5aUuOVhlVuq0WL3dP-1" target="YBl5aUuOVhlVuq0WL3dP-10">
          <mxGeometry relative="1" as="geometry">
            <mxPoint x="80" y="500" as="targetPoint" />
            <mxPoint x="110" y="280" as="sourcePoint" />
            <Array as="points">
              <mxPoint x="110" y="280" />
              <mxPoint x="110" y="470" />
            </Array>
          </mxGeometry>
        </mxCell>
        <mxCell id="YBl5aUuOVhlVuq0WL3dP-15" value="&lt;font style=&quot;font-size: 15px;&quot;&gt;4. JWT token&lt;/font&gt;" style="edgeLabel;html=1;align=center;verticalAlign=middle;resizable=0;points=[];" vertex="1" connectable="0" parent="YBl5aUuOVhlVuq0WL3dP-12">
          <mxGeometry x="0.0036" y="3" relative="1" as="geometry">
            <mxPoint as="offset" />
          </mxGeometry>
        </mxCell>
        <mxCell id="YBl5aUuOVhlVuq0WL3dP-1" value="User" style="shape=umlActor;verticalLabelPosition=bottom;verticalAlign=top;html=1;outlineConnect=0;" vertex="1" parent="1">
          <mxGeometry x="130" y="250" width="30" height="60" as="geometry" />
        </mxCell>
        <mxCell id="YBl5aUuOVhlVuq0WL3dP-7" style="edgeStyle=orthogonalEdgeStyle;rounded=0;orthogonalLoop=1;jettySize=auto;html=1;" edge="1" parent="1" source="YBl5aUuOVhlVuq0WL3dP-2" target="YBl5aUuOVhlVuq0WL3dP-1">
          <mxGeometry relative="1" as="geometry">
            <mxPoint x="410" y="370" as="targetPoint" />
            <Array as="points">
              <mxPoint x="555" y="350" />
              <mxPoint x="145" y="350" />
            </Array>
          </mxGeometry>
        </mxCell>
        <mxCell id="YBl5aUuOVhlVuq0WL3dP-8" value="&lt;font style=&quot;font-size: 15px;&quot;&gt;3. JWT token&lt;/font&gt;" style="edgeLabel;html=1;align=center;verticalAlign=middle;resizable=0;points=[];" vertex="1" connectable="0" parent="YBl5aUuOVhlVuq0WL3dP-7">
          <mxGeometry x="-0.2043" y="1" relative="1" as="geometry">
            <mxPoint as="offset" />
          </mxGeometry>
        </mxCell>
        <mxCell id="YBl5aUuOVhlVuq0WL3dP-2" value="&lt;font style=&quot;font-size: 18px;&quot;&gt;Identity provider (Google)&lt;/font&gt;" style="ellipse;whiteSpace=wrap;html=1;fillColor=#d5e8d4;strokeColor=#82b366;" vertex="1" parent="1">
          <mxGeometry x="460" y="230" width="190" height="100" as="geometry" />
        </mxCell>
        <mxCell id="YBl5aUuOVhlVuq0WL3dP-5" style="edgeStyle=orthogonalEdgeStyle;rounded=0;orthogonalLoop=1;jettySize=auto;html=1;" edge="1" parent="1" source="YBl5aUuOVhlVuq0WL3dP-4">
          <mxGeometry relative="1" as="geometry">
            <mxPoint x="310" y="280" as="targetPoint" />
          </mxGeometry>
        </mxCell>
        <mxCell id="YBl5aUuOVhlVuq0WL3dP-6" value="&lt;font style=&quot;font-size: 15px;&quot;&gt;2. Inject public key&lt;/font&gt;" style="edgeLabel;html=1;align=center;verticalAlign=middle;resizable=0;points=[];" vertex="1" connectable="0" parent="YBl5aUuOVhlVuq0WL3dP-5">
          <mxGeometry x="0.0341" y="4" relative="1" as="geometry">
            <mxPoint as="offset" />
          </mxGeometry>
        </mxCell>
        <mxCell id="YBl5aUuOVhlVuq0WL3dP-4" value="&lt;font style=&quot;font-size: 18px;&quot;&gt;App&lt;/font&gt;" style="shape=hexagon;perimeter=hexagonPerimeter2;whiteSpace=wrap;html=1;fixedSize=1;fillColor=#fff2cc;strokeColor=#d6b656;" vertex="1" parent="1">
          <mxGeometry x="250" y="70" width="120" height="80" as="geometry" />
        </mxCell>
        <mxCell id="YBl5aUuOVhlVuq0WL3dP-16" style="edgeStyle=orthogonalEdgeStyle;rounded=0;orthogonalLoop=1;jettySize=auto;html=1;entryX=1;entryY=0.5;entryDx=0;entryDy=0;" edge="1" parent="1" source="YBl5aUuOVhlVuq0WL3dP-10" target="YBl5aUuOVhlVuq0WL3dP-10">
          <mxGeometry relative="1" as="geometry">
            <mxPoint x="680" y="480" as="targetPoint" />
            <Array as="points">
              <mxPoint x="555" y="570" />
              <mxPoint x="700" y="570" />
              <mxPoint x="700" y="470" />
            </Array>
          </mxGeometry>
        </mxCell>
        <mxCell id="YBl5aUuOVhlVuq0WL3dP-17" value="&lt;font style=&quot;font-size: 15px;&quot;&gt;5. Associate identity&lt;/font&gt;" style="edgeLabel;html=1;align=center;verticalAlign=middle;resizable=0;points=[];" vertex="1" connectable="0" parent="YBl5aUuOVhlVuq0WL3dP-16">
          <mxGeometry x="0.04" y="4" relative="1" as="geometry">
            <mxPoint as="offset" />
          </mxGeometry>
        </mxCell>
        <mxCell id="YBl5aUuOVhlVuq0WL3dP-10" value="&lt;font style=&quot;font-size: 18px;&quot;&gt;On-chain contract (Mina)&lt;/font&gt;" style="ellipse;whiteSpace=wrap;html=1;fillColor=#dae8fc;strokeColor=#6c8ebf;" vertex="1" parent="1">
          <mxGeometry x="460" y="420" width="190" height="100" as="geometry" />
        </mxCell>
      </root>
    </mxGraphModel>
  </diagram>
</mxfile>
